# xmcd
#
# Track frame offsets:
#	150
#	18900
#	33975
#	48900
#	64725
#	80775
#	98325
#	116850
#	130575
#	149700
#	165825
#	179250
#	189600
#	206625
#	227700
#	243450
#	262200
#
# Disc length: 3516
#
# Revision: 1
# Processed by: cddbd v1.5.2PL0 Copyright (c) Steve Scherf et al.
# Submitted via: kJams Pro (development) 1.0patch49.33
#
DISCID=ec0dba11
DTITLE=Various Artist - BCY001
DYEAR=2007
DGENRE=Country
TTITLE0=Brad Paisley - Alcohol
TTITLE1=Gretchen Wilson - Homewrecker
TTITLE2=Jo Dee Messina - My Give A Damn's Busted
TTITLE3=Hot Apple Pie - Hillbillies
TTITLE4=Toby Keith - Honky Tonk U
TTITLE5=Reba McEntire - My Sister
TTITLE6=Big and Rich - Big Time
TTITLE7=Keith Anderson - Pickin' Wildflowers
TTITLE8=George Strait - You'll Be There
TTITLE9=LeAnn Rimes - Probably Wouldn't Be This Way
TTITLE10=Alan Jackson - Talkin' Song Repair Blues
TTITLE11=Joe Nichols - What's A Guy Gotta Do
TTITLE12=Dierks Bentley - Log of Leavin' Left to Do
TTITLE13=Tim McGraw - Drugs or Jesus
TTITLE14=Andy Griggs - If Heaven
TTITLE15=Brad Paisley - Alcohol (Vocal)
TTITLE16=NONE - Blank
EXTD=Label=Big Country
EXTT0=
EXTT1=
EXTT2=
EXTT3=
EXTT4=
EXTT5=
EXTT6=
EXTT7=
EXTT8=
EXTT9=
EXTT10=
EXTT11=
EXTT12=
EXTT13=
EXTT14=
EXTT15=
EXTT16=
PLAYORDER=
